<svg version="1" xmlns="http://www.w3.org/2000/svg" width="348" height="348" viewBox="0 0 261.000000 261.000000"><path d="M125.7.6c-.1.1-3.3.4-7.2.8-32.9 2.9-65.4 19.7-86 44.3-7.8 9.3-7.5 9-12.3 16.5C2.7 90-3.1 123.7 3.5 158.4c1.5 7.4 7.2 23.1 11.8 32 15.5 30.4 42.9 53.7 75.5 64.2 6.5 2 8.2 3 8.2 4.5 0 1.8 1.2 1.9 32 1.9 30.9 0 32-.1 32-1.9 0-1.5 1.7-2.5 8.3-4.7 20.2-6.6 35.5-16.2 51.2-31.9 25.3-25.3 37.7-54.5 37.9-89.5.1-17.2-.6-23.3-3.9-36-7.6-28.3-24.8-53.3-49-71.3C193.3 15.1 170.2 5.3 153 2.5c-5.7-.9-26.7-2.4-27.3-1.9z"/></svg>